<svg xmlns="http://www.w3.org/2000/svg" xmlns:xlink="http://www.w3.org/1999/xlink" fill="none" version="1.1" width="317.956298828125" height="316.031494140625" viewBox="0 0 317.956298828125 316.031494140625"><g><g><path d="M233.298,17.431415258789063C231.002,19.991015258789062,228.746,21.363815258789064,225.657,22.849315258789062C224.751,23.299915258789063,223.845,23.75041525878906,222.911,24.214615258789063C221.023,25.14081525878906,219.13,26.057715258789063,217.232,26.964615258789063C208.18,31.503115258789062,202.363,37.30281525878906,198.954,46.927515258789064C196.793,55.174115258789065,198.612,63.124215258789064,202.411,70.63061525878906C206.464,76.90751525878906,212.265,80.21581525878906,219.298,82.43141525878906C228.423,83.77361525878906,236.142,82.68541525878906,244.299,78.45971525878906C246.829,77.15811525878907,249.389,75.92091525878907,251.947,74.67361525878906C254.024,73.63761525878907,256.099,72.59851525878906,258.173,71.55641525878906C259.173,71.06301525878906,260.172,70.56961525878906,261.202,70.06131525878907C268.141,66.47981525878906,272.743,62.86881525878906,276.65,56.08371525878906C277.635,52.05451525878906,277.667,48.12771525878906,277.673,43.99391525878906C277.698,43.16051525878906,277.722,42.327115258789064,277.747,41.46851525878906C277.778,34.986615258789065,276.123,31.356815258789062,271.548,26.618915258789063C268.24,24.873115258789063,264.996,24.310315258789064,261.298,24.431415258789063C257.067,25.948115258789063,254.671,27.60881525878906,252.298,31.431415258789063C253.536,31.802615258789064,254.773,32.173915258789066,256.048,32.55641525878906C260.437,34.22941525878906,262.317,36.055515258789065,264.298,40.43141525878906C264.908,44.27121525878906,265.251,46.69921525878906,263.371,50.11771525878906C258.58,56.068115258789064,252.362,58.974815258789064,245.611,62.30641525878906C244.47,62.88651525878906,243.33,63.466515258789066,242.156,64.06421525878906C230.198,70.11011525878907,230.198,70.11011525878907,223.298,69.43141525878906C219.29,67.65881525878906,216.163,65.43171525878907,213.298,62.11891525878906C211.439,57.123615258789066,211.701,53.06571525878906,213.486,48.18141525878906C217.039,42.78951525878906,222.408,40.102815258789065,227.986,37.18141525878906C229,36.63611525878906,229,36.63611525878906,230.034,36.07981525878906C235.038,33.43141525878906,235.038,33.43141525878906,237.298,33.43141525878906C237.381,32.42081525878906,237.463,31.410115258789062,237.548,30.368915258789063C238.635,23.166315258789062,242.626,18.45501525878906,248.091,13.943115258789062C254.723,9.400335258789063,261.86,8.598215258789063,269.669,9.794675258789063C277.835,11.667215258789062,283.846,16.75821525878906,288.779,23.435315258789064C293.384,31.133815258789063,293.647,40.72171525878906,291.615,49.32591525878906C289.228,55.771515258789066,285.71,61.72531525878906,279.423,64.86891525878906C277.101,66.19241525878907,277.101,66.19241525878907,276.99,68.38451525878907C276.986,70.40281525878906,277.133,72.41991525878906,277.298,74.43141525878906C278.22,73.90741525878906,278.22,73.90741525878906,279.161,73.37281525878906C280.374,72.69021525878907,280.374,72.69021525878907,281.611,71.99391525878906C282.411,71.54141525878906,283.212,71.08901525878906,284.036,70.62281525878906C286.298,69.43141525878906,286.298,69.43141525878906,289.298,68.43141525878906C313.532,104.58901525878906,323.122,146.77701525878905,315.275,189.86701525878905C309.979,215.61201525878906,299.322,239.34201525878908,282.298,259.43101525878905C281.621,260.2320152587891,280.945,261.03201525878904,280.247,261.8570152587891C255.272,290.4850152587891,222.237,306.5110152587891,185.298,313.43101525878905C184.598,313.56601525878904,183.898,313.70001525878905,183.177,313.8380152587891C143.127,321.2520152587891,98.8948,309.29201525878904,65.5078,286.70301525878904C57.8403,281.28001525878904,51.0383,274.94801525878904,44.2981,268.43101525878905C43.3004,267.5110152587891,43.3004,267.5110152587891,42.2825,266.57201525878907C13.9195,239.80001525878907,1.1756,198.34001525878907,0.0126953,160.31701525878907C-0.544388,117.69301525878906,17.2698,77.38741525878906,46.5127,46.87941525878906C63.6987,29.355115258789063,85.0458,16.357715258789064,108.298,8.431395258789063C108.95,8.209035258789063,109.602,7.9866652587890625,110.274,7.757565258789063C151.417,-5.9926647412109375,194.486,-0.6630037412109375,233.298,17.431415258789063Z" fill="#E24329" fill-opacity="1" style="mix-blend-mode:passthrough"/></g><g><path d="M158.90206896972657,97.91992044921875C168.69506896972655,99.08217044921875,178.44806896972656,99.92863044921874,188.29806896972656,100.43140044921876C186.93606896972656,104.05417044921874,185.87906896972657,106.21446044921875,182.86106896972657,108.68136044921874C181.96506896972656,109.43166044921875,181.96506896972656,109.43166044921875,181.05206896972658,110.19706044921875C177.56906896972657,112.64836044921876,174.43606896972656,112.54916044921875,170.31806896972657,112.52906044921875C169.15406896972655,112.52586044921875,167.99106896972657,112.52256044921876,166.79206896972656,112.51926044921875C165.57706896972655,112.51086044921875,164.36206896972655,112.50256044921875,163.11106896972657,112.49386044921874C161.88406896972657,112.48936044921875,160.65706896972657,112.48486044921876,159.39406896972656,112.48026044921875C156.36206896972658,112.46846044921875,153.33006896972657,112.45196044921875,150.29806896972656,112.43136044921874C150.29806896972656,113.42136044921875,150.29806896972656,114.41136044921875,150.29806896972656,115.43136044921874C154.25806896972657,115.43136044921874,158.21806896972657,115.43136044921874,162.29806896972656,115.43136044921874C162.57806896972656,116.38656044921875,162.85706896972655,117.34176044921875,163.14606896972657,118.32596044921875C166.63406896972657,129.75256044921875,171.59106896972656,138.18246044921875,179.29806896972656,147.43136044921874C164.11806896972655,147.76136044921876,148.93806896972654,148.09136044921874,133.29806896972656,148.43136044921874C131.81906896972657,153.92426044921876,131.81906896972657,153.92426044921876,133.33006896972657,156.77226044921875C136.14806896972658,159.14746044921876,138.13006896972655,158.94986044921876,141.78906896972654,158.97726044921876C142.44306896972657,158.98766044921877,143.09706896972656,158.99796044921874,143.77106896972657,159.00866044921875C145.93006896972656,159.03806044921873,148.08806896972658,159.03956044921875,150.24706896972657,159.04076044921874C151.74506896972656,159.05576044921875,153.24306896972655,159.07246044921874,154.74106896972657,159.09086044921875C158.68106896972657,159.13456044921875,162.62206896972657,159.15456044921876,166.56306896972657,159.16966044921875C170.58506896972656,159.18916044921875,174.60606896972655,159.23116044921875,178.62806896972657,159.27126044921874C186.51806896972656,159.34656044921877,194.40806896972657,159.39476044921875,202.29806896972656,159.43136044921874C201.96806896972657,163.72136044921876,201.63806896972656,168.01136044921876,201.29806896972656,172.43136044921874C190.73806896972656,172.43136044921874,180.17806896972655,172.43136044921874,169.29806896972656,172.43136044921874C169.29806896972656,173.09136044921877,169.29806896972656,173.75136044921874,169.29806896972656,174.43136044921874C171.01706896972655,174.25736044921877,171.01706896972655,174.25736044921877,172.77106896972657,174.07986044921876C184.78806896972657,173.22386044921876,184.78806896972657,173.22386044921876,188.77506896972656,176.41186044921875C190.49806896972657,179.01256044921877,191.91806896972656,181.63506044921877,193.29806896972656,184.43136044921874C198.28106896972656,191.86996044921875,205.81206896972657,196.32646044921876,214.36106896972657,198.80646044921875C217.78106896972656,199.34946044921875,219.99806896972657,199.26546044921875,223.36106896972657,198.93146044921875C226.64006896972657,198.87146044921874,227.83606896972657,199.01946044921874,230.31406896972655,201.22846044921874C240.94806896972656,215.74646044921874,242.62406896972655,231.00946044921875,241.29806896972656,248.43146044921875C239.47206896972656,260.1814604492188,232.11906896972656,271.06046044921874,222.73606896972657,278.1814604492188C221.60206896972656,278.9504604492188,220.46106896972657,279.70846044921876,219.29806896972656,280.4314604492188C219.29806896972656,277.12446044921876,220.05306896972655,275.1284604492188,221.23606896972657,272.0564604492188C225.97906896972657,259.7124604492187,225.42006896972657,247.61946044921876,220.29806896972656,235.43146044921875C213.98306896972656,222.80146044921875,204.26206896972656,214.75346044921875,191.29806896972656,209.43146044921875C182.08506896972656,206.75346044921875,169.04006896972658,206.82146044921876,160.43106896972657,211.11146044921875C151.98706896972658,216.33846044921876,145.51506896972654,222.08546044921874,142.16506896972658,231.67346044921874C141.19206896972656,235.89046044921875,140.89406896972656,239.74546044921874,140.86106896972655,244.05646044921875C140.82806896972656,244.77446044921874,140.79506896972657,245.49246044921875,140.76106896972658,246.23246044921876C140.71106896972657,251.40246044921875,141.91906896972657,255.43546044921874,143.83306896972658,260.2414604492187C144.29206896972656,261.40346044921876,144.75106896972656,262.5654604492188,145.22406896972655,263.76246044921874C145.57806896972656,264.6424604492188,145.93306896972655,265.52346044921876,146.29806896972656,266.4314604492188C138.73406896972656,266.52446044921874,131.17006896972657,266.59546044921876,123.60616896972657,266.63846044921877C120.09206896972657,266.6594604492187,116.57836896972657,266.68746044921875,113.06446896972656,266.73346044921874C82.87626896972657,267.1164604492187,82.87626896972657,267.1164604492187,71.29806896972656,262.4314604492188C70.51856896972657,262.1234604492188,69.73916896972656,261.81446044921876,68.93606896972656,261.49746044921875C60.19796896972656,257.67046044921875,52.92576896972656,252.25346044921875,46.29806896972656,245.43146044921875C45.665168969726565,244.81946044921875,45.03226896972656,244.20646044921875,44.38016896972656,243.57546044921875C32.80756896972656,231.59446044921876,28.748764069726562,215.06946044921875,28.805664062726564,198.83446044921874C29.369353969726564,183.34966044921873,37.16251896972656,168.96506044921875,48.29806896972656,158.43136044921874C51.19706896972656,156.24476044921875,54.171968969726564,154.27666044921875,57.29806896972656,152.43136044921874C57.95806896972656,152.76136044921876,58.618068969726565,153.09136044921874,59.29806896972656,153.43136044921874C58.97586896972656,154.25256044921875,58.653568969726564,155.07366044921875,58.32156896972656,155.91966044921875C54.95346896972656,167.47636044921876,56.97906896972656,179.41026044921875,62.58326896972656,189.81816044921874C69.95686896972657,201.91546044921876,82.66136896972657,210.01346044921877,96.26686896972656,213.56446044921876C99.60376896972656,214.28646044921874,102.92656896972656,214.89846044921876,106.29806896972656,215.43146044921875C107.96566896972656,215.76046044921875,109.63256896972656,216.09246044921875,111.29806896972656,216.43146044921875C111.03596896972657,215.30746044921875,110.77376896972656,214.18346044921876,110.50366896972656,213.02546044921877C109.52066896972656,208.80846044921876,108.54116896972656,204.59146044921874,107.56276896972656,200.37346044921875C107.14086896972657,198.55646044921875,106.71796896972656,196.74046044921874,106.29416896972656,194.92386044921875C96.90296896972656,154.66776044921875,96.90296896972656,154.66776044921875,105.84106896972656,138.66966044921875C112.26536896972657,129.06996044921874,119.67986896972656,122.15066044921875,130.29806896972656,117.43136044921874C130.95806896972658,117.43136044921874,131.61806896972655,117.43136044921874,132.29806896972656,117.43136044921874C132.29806896972656,116.77136044921875,132.29806896972656,116.11136044921875,132.29806896972656,115.43136044921874C131.61406896972656,115.58996044921875,130.92906896972656,115.74846044921875,130.22406896972655,115.91186044921875C113.53196896972656,118.87586044921875,96.50716896972656,114.30686044921875,82.29806896972656,105.43136044921874C81.63806896972656,104.44140044921875,80.97806896972656,103.45139044921875,80.29806896972656,102.43140044921876C85.61756896972656,101.03785044921875,90.95106896972656,99.71510044921875,96.29806896972656,98.43139044921875C97.55746896972656,98.12331044921875,98.81696896972656,97.81522044921876,100.11446896972656,97.49780044921874C119.64876896972656,93.24059044921874,139.26606896972658,95.58451844921875,158.90206896972657,97.91992044921875Z" fill="#FCA326" fill-opacity="1" style="mix-blend-mode:passthrough"/></g><g><path d="M236.173095703125,140.03295898476563C237.387195703125,140.02865368476563,237.387195703125,140.02865368476563,238.625695703125,140.02426147476564C240.323195703125,140.02223584476562,242.020595703125,140.02765958476562,243.71799570312498,140.04028318476563C246.292095703125,140.05635918476563,248.864695703125,140.04038368476563,251.438695703125,140.02124023476563C253.100195703125,140.0232229347656,254.761595703125,140.02706718476563,256.423095703125,140.03295898476563C257.179595703125,140.02688628476562,257.936095703125,140.02081359476563,258.715595703125,140.01455688476562C267.70649570312503,140.13085688476562,275.913895703125,142.96676688476563,282.298095703125,149.43139688476563C288.68429570312503,158.34435688476563,290.150195703125,165.50525688476563,289.298095703125,176.43135688476562C286.985395703125,185.53855688476563,282.453795703125,190.89815688476563,274.809795703125,196.09935688476563C269.01289570312497,199.17365688476562,263.321995703125,199.74805688476562,256.907495703125,199.76735688476563C255.729595703125,199.77735688476562,255.729595703125,199.77735688476562,254.527895703125,199.78745688476562C252.873995703125,199.79755688476564,251.220095703125,199.80235688476563,249.566195703125,199.80195688476562C247.068595703125,199.80635688476562,244.572695703125,199.84265688476563,242.075395703125,199.88065688476564C230.202295703125,199.96535688476564,219.934795703125,198.98015688476562,210.954345703125,190.34935688476563C206.256265703125,184.9088568847656,204.802247703125,179.48955688476562,204.298095703125,172.43135688476562C209.071135703125,171.90175688476563,213.547165703125,171.63075688476562,218.298095703125,172.43135688476562C220.629795703125,174.55305688476562,221.745895703125,176.43175688476563,223.087195703125,179.26735688476563C224.610795703125,181.9901568847656,225.368895703125,182.36865688476564,228.298095703125,183.43135688476562C231.089795703125,183.64735688476563,233.779195703125,183.75925688476562,236.571495703125,183.76735688476563C237.773595703125,183.77735688476562,237.773595703125,183.77735688476562,238.999895703125,183.78745688476562C240.692695703125,183.79765688476562,242.385495703125,183.80235688476563,244.078395703125,183.80195688476562C246.657495703125,183.80635688476562,249.234895703125,183.84265688476563,251.813695703125,183.88065688476564C253.462195703125,183.8864568847656,255.110595703125,183.89045688476563,256.758995703125,183.89235688476563C257.524895703125,183.90665688476562,258.290695703125,183.92105688476562,259.079695703125,183.93585688476563C264.257895703125,183.89205688476562,267.189795703125,182.84555688476564,271.298095703125,179.43135688476562C274.216095703125,175.05435688476564,274.938595703125,171.64675688476564,274.298095703125,166.43135688476562C272.852295703125,162.46975688476562,271.384995703125,160.1031568847656,267.751995703125,157.85765688476562C263.508695703125,156.10545688476563,260.112195703125,155.9978568847656,255.575395703125,156.0329568847656C254.340795703125,156.0286568847656,254.340795703125,156.0286568847656,253.081195703125,156.02425688476563C251.348995703125,156.02225688476562,249.616895703125,156.02765688476563,247.884795703125,156.04025688476563C245.240095703125,156.05635688476562,242.596995703125,156.04035688476563,239.952395703125,156.02125688476562C238.26419570312498,156.02325688476563,236.576095703125,156.0270568847656,234.887895703125,156.0329568847656C233.708095703125,156.02385688476562,233.708095703125,156.02385688476562,232.504395703125,156.01455688476562C227.829895703125,156.07425688476562,225.141695703125,156.8369568847656,221.298095703125,159.43135688476562C218.441395703125,159.64125688476562,215.826095703125,159.71785688476564,212.985595703125,159.61885688476562C211.874745703125,159.59855688476563,211.874745703125,159.59855688476563,210.741455703125,159.57785688476562C208.926685703125,159.54275688476562,207.112295703125,159.48895688476563,205.298095703125,159.43135688476562C208.273095703125,152.18795688476564,212.754015703125,145.78133688476564,220.219195703125,142.61710688476563C225.661295703125,140.70436588476562,230.423695703125,139.98680778476563,236.173095703125,140.03295898476563Z" fill="#FC6D26" fill-opacity="1" style="mix-blend-mode:passthrough"/></g><g><path d="M154.298095703125,44.431396484375C154.270795703125,45.065292484375,154.243495703125,45.699186484375,154.21529570312498,46.352296484375C153.312595703125,60.505896484375,153.312595703125,60.505896484375,158.84549570312498,72.935996484375C161.215095703125,75.273496484375,163.697895703125,77.348496484375,166.298095703125,79.431396484375C167.059895703125,80.19449648437501,167.82179570312502,80.957596484375,168.606695703125,81.743896484375C174.83259570312498,87.958396484375,182.074095703125,90.690096484375,190.298095703125,93.431396484375C190.298095703125,94.091396484375,190.298095703125,94.751396484375,190.298095703125,95.431396484375C173.182395703125,96.10919648437499,163.11029570312502,93.006796484375,148.640395703125,83.67259648437499C139.236195703125,77.739596484375,129.417195703125,75.794396484375,118.41139570312501,78.013396484375C110.452195703125,80.24529648437499,103.054995703125,83.664196484375,95.628395703125,87.25729648437499C89.937795703125,89.945496484375,84.517035703125,91.47389648437499,78.298095703125,92.431396484375C84.048095703125,84.681396484375,84.048095703125,84.681396484375,86.298095703125,82.431396484375C86.543785703125,79.63919648437499,86.671725703125,76.938996484375,86.712155703125,74.142296484375C86.731525703125,73.323896484375,86.750895703125,72.505496484375,86.770845703125,71.66229648437499C86.830705703125,69.04379648437501,86.877055703125,66.425196484375,86.923095703125,63.806396484375C86.961265703125,62.032896484375,87.000315703125,60.259496484375,87.040285703125,58.486096484375C87.136415703125,54.134676484375,87.220425703125,49.783176484375,87.298095703125,45.431396484375C90.929795703125,48.410416484375,94.394295703125,51.437696484375,97.579295703125,54.896196484375C98.377895703125,55.753796484375,98.377895703125,55.753796484375,99.192595703125,56.628696484375C100.276595703125,57.803696484374996,101.346795703125,58.991596484375,102.403595703125,60.191196484375C103.971595703125,61.848496484375005,105.361595703125,63.222796484374996,107.298095703125,64.431396484375C111.062495703125,64.37209648437499,113.752695703125,63.613196484374996,117.298095703125,62.431396484375C119.181195703125,62.621796484375,121.064295703125,62.812396484375,122.94729570312501,63.004896484374996C128.781795703125,63.467596484375,133.428895703125,63.606296484375,138.098895703125,59.716596484375C140.897995703125,57.007496484375,143.39259570312498,54.071166484375,145.862095703125,51.062746484375C151.699495703125,44.431396484375,151.699495703125,44.431396484375,154.298095703125,44.431396484375Z" fill="#FCA326" fill-opacity="1" style="mix-blend-mode:passthrough"/></g><g><path d="M241.298095703125,122.43139612304688C244.541195703125,124.87680612304688,247.535395703125,127.45044612304687,250.298095703125,130.4314261230469C250.298095703125,130.76142612304687,250.298095703125,131.0914261230469,250.298095703125,131.4314261230469C248.869295703125,131.44542612304687,248.869295703125,131.44542612304687,247.411595703125,131.45972612304686C243.838395703125,131.49992612304686,240.265995703125,131.56582612304686,236.693395703125,131.63892612304687C235.154395703125,131.66692612304686,233.615295703125,131.6882261230469,232.076195703125,131.70242612304688C222.028295703125,131.80022612304688,213.483695703125,132.05252612304687,205.485595703125,138.8064261230469C203.144995703125,141.3782261230469,203.144995703125,141.3782261230469,201.798095703125,144.7439261230469C199.298095703125,147.4314261230469,199.298095703125,147.4314261230469,196.157475703125,147.81032612304688C192.850975703125,147.80672612304687,189.593965703125,147.68862612304687,186.298095703125,147.4314261230469C186.660735703125,139.0906261230469,190.968055703125,132.32532612304686,196.923095703125,126.61889612304688C209.159995703125,116.89392812304688,227.423795703125,114.39893612304688,241.298095703125,122.43139612304688Z" fill="#FC6D26" fill-opacity="1" style="mix-blend-mode:passthrough"/></g><g><path d="M116.298095703125,176.431396484375C129.723295703125,183.143986484375,138.335795703125,192.576396484375,144.548095703125,206.165796484375C145.298095703125,208.431396484375,145.298095703125,208.431396484375,145.298095703125,211.431396484375C143.112395703125,212.083196484375,140.92439570312501,212.727496484375,138.735595703125,213.368896484375C137.517395703125,213.728496484375,136.299295703125,214.088196484375,135.044195703125,214.458696484375C128.554395703125,216.143796484375,123.082705703125,216.431396484375,116.298095703125,216.431396484375C116.298095703125,203.231396484375,116.298095703125,190.031396484375,116.298095703125,176.431396484375Z" fill="#E24329" fill-opacity="1" style="mix-blend-mode:passthrough"/></g><g><path d="M105.63649570312501,275.2226411484375C107.274295703125,275.1937051484375,107.274295703125,275.1937051484375,108.945195703125,275.1641841484375C113.948695703125,275.1063181484375,118.952095703125,275.0571471484375,123.955795703125,275.0263521484375C126.590095703125,275.0047911484375,129.224195703125,274.9707131484375,131.858195703125,274.9238131484375C135.663995703125,274.8566791484375,139.468295703125,274.8293261484375,143.274695703125,274.8102874484375C145.028295703125,274.7685414484375,145.028295703125,274.7685414484375,146.817295703125,274.7259521484375C153.707195703125,274.7431615484375,157.931695703125,275.6477071484375,163.390495703125,279.9576121484375C166.15549570312498,282.0937921484375,169.050095703125,283.1874621484375,172.298095703125,284.4313821484375C172.298095703125,284.7613521484375,172.298095703125,285.0913521484375,172.298095703125,285.4313521484375C144.908095703125,285.4313521484375,117.518095703125,285.4313521484375,89.298095703125,285.4313521484375C93.620605703125,278.2272021484375,97.274965703125,275.3607771484375,105.63649570312501,275.2226411484375Z" fill="#FCA326" fill-opacity="1" style="mix-blend-mode:passthrough"/></g><g><path d="M169.298095703125,172.43138171679686C173.800455703125,172.40665831679686,178.302765703125,172.38851071679687,182.805195703125,172.37645021679688C184.336795703125,172.37142231679687,185.868295703125,172.3645990167969,187.399895703125,172.35594241679686C189.601695703125,172.34380961679688,191.803395703125,172.33813821679686,194.005095703125,172.33372561679687C194.689595703125,172.32856431679687,195.374095703125,172.32340305679688,196.079295703125,172.31808536499787C199.107195703125,172.3177282737969,201.399595703125,172.46521571679688,204.298095703125,173.43138471679688C205.325395703125,175.72435471679688,205.325395703125,175.72435471679688,206.235595703125,178.61888471679688C209.269595703125,187.38138471679687,213.149895703125,192.02918471679686,221.298095703125,196.43138471679688C223.650995703125,197.33308471679686,225.824395703125,197.90508471679686,228.298095703125,198.43138471679688C227.96809570312502,199.09138471679688,227.638095703125,199.75138471679688,227.298095703125,200.43138471679688C216.278295703125,200.96458471679688,207.16319570312498,198.10918471679688,198.298095703125,191.43138471679688C194.940295703125,188.25308471679688,191.395695703125,184.89608471679688,189.491495703125,180.62010471679687C188.580795703125,178.62240471679686,187.768295703125,177.06763471679687,186.298095703125,175.43138471679688C183.382695703125,174.4336347167969,180.607895703125,174.45075471679687,177.548095703125,174.49388471679688C176.358935703125,174.4697147167969,176.358935703125,174.4697147167969,175.145755703125,174.44505471679688C173.196845703125,174.40983471679687,171.247265703125,174.41648471679687,169.298095703125,174.43138471679688C169.298095703125,173.7713847167969,169.298095703125,173.11138171679687,169.298095703125,172.43138171679686Z" fill="#E24329" fill-opacity="1" style="mix-blend-mode:passthrough"/></g><g><path d="M48.298095703125,88.431396484375C48.958095703125,88.431396484375,49.618095703125,88.431396484375,50.298095703125,88.431396484375C50.528795703125,89.106865484375,50.759595703125,89.782336484375,50.997295703125005,90.478276484375C53.566195703125004,97.664306484375,53.566195703125004,97.664306484375,59.298095703125,102.431396484375C62.261595703124996,103.573896484375,65.246195703125,104.553696484375,68.298095703125,105.431396484375C68.298095703125,106.091396484375,68.298095703125,106.751396484375,68.298095703125,107.431396484375C67.55039570312499,107.662096484375,66.802795703125,107.892896484375,66.032495703125,108.130596484375C58.343495703125,110.507196484375,58.343495703125,110.507196484375,53.298095703125,116.431396484375C52.159995703125,119.396496484375,51.175795703125004,122.379596484375,50.298095703125,125.431396484375C49.638095703125,125.431396484375,48.978095703125,125.431396484375,48.298095703125,125.431396484375C48.055795703125,124.68369648437499,47.813395703124996,123.936096484375,47.563695703125,123.165796484375C47.060995703125,121.68849648437501,47.060995703125,121.68849648437501,46.548095703125,120.181396484375C46.060795703125,118.719596484375,46.060795703125,118.719596484375,45.563695703125,117.228296484375C43.745395703125,113.20989648437501,41.829895703125004,111.053396484375,37.719975703125,109.384496484375C36.838255703125,109.152496484375,35.956535703125,108.92049648437501,35.048095703125,108.681396484375C34.156065703125,108.439096484375,33.264035703125,108.196696484375,32.344975703125,107.946996484375C31.669505703125,107.776896484375,30.994033703124998,107.606696484375,30.298095703125,107.431396484375C30.298095703125,106.771396484375,30.298095703125,106.111396484375,30.298095703125,105.431396484375C31.045751703125,105.200696484375,31.793405703125,104.969896484375,32.563715703125,104.732196484375C40.232145703125,102.34429648437501,40.232145703125,102.34429648437501,45.298095703125,96.431396484375C46.420995703125,93.786696484375,47.373995703125004,91.157576484375,48.298095703125,88.431396484375Z" fill="#FC6D26" fill-opacity="1" style="mix-blend-mode:passthrough"/></g><g><path d="M267.298095703125,85.431396484375C268.288095703125,85.761396484375,269.278095703125,86.091396484375,270.298095703125,86.431396484375C271.036395703125,88.322016484375,271.036395703125,88.322016484375,271.610595703125,90.681396484375C273.160995703125,95.734296484375,274.833795703125,97.598296484375,279.298095703125,100.431396484375C281.638895703125,101.324496484375,283.838895703125,101.890396484375,286.298095703125,102.431396484375C286.298095703125,103.421396484375,286.298095703125,104.411396484375,286.298095703125,105.431396484375C285.694795703125,105.601596484375,285.091495703125,105.771696484375,284.469995703125,105.946996484375C278.016195703125,107.846796484375,278.016195703125,107.846796484375,273.298095703125,112.431396484375C271.833095703125,115.381896484375,270.525795703125,118.37519648437501,269.298095703125,121.431396484375C268.638095703125,121.431396484375,267.978095703125,121.431396484375,267.298095703125,121.431396484375C266.885595703125,120.21449648437499,266.473095703125,118.99759648437501,266.048095703125,117.743896484375C264.301195703125,113.131796484375,262.429195703125,109.552996484375,257.923095703125,107.181396484375C255.062765703125,106.364196484375,252.242945703125,105.842296484375,249.298095703125,105.431396484375C249.298095703125,104.441396484375,249.298095703125,103.451396484375,249.298095703125,102.431396484375C249.961963703125,102.272796484375,250.625825703125,102.114296484375,251.309815703125,101.950896484375C256.890545703125,100.476296484375,260.804595703125,99.301096484375,264.298095703125,94.431396484375C265.517395703125,91.482386484375,266.472495703125,88.512266484375,267.298095703125,85.431396484375Z" fill="#F7F8F9" fill-opacity="1" style="mix-blend-mode:passthrough"/></g><g><path d="M132.298095703125,77.43139019671875C139.159365703125,77.31101663671875,143.610295703125,79.39913263671875,149.360595703125,82.86889263671875C150.379695703125,83.48075263671875,150.379695703125,83.48075263671875,151.419395703125,84.10497263671876C153.087995703125,85.14901263671875,154.699295703125,86.28338263671876,156.298095703125,87.43135263671874C156.298095703125,89.43135263671874,156.298095703125,89.43135263671874,154.860595703125,90.93135263671874C154.344995703125,91.42635263671875,153.829295703125,91.92135263671875,153.298095703125,92.43135263671874C152.96809570312502,93.09135263671875,152.638095703125,93.75135263671875,152.298095703125,94.43135263671874C153.288095703125,94.76135263671875,154.278095703125,95.09135263671875,155.298095703125,95.43135263671874C154.555595703125,95.57575263671875,153.813095703125,95.72015263671875,153.048095703125,95.86885263671874C150.777795703125,96.33325263671875,148.540495703125,96.85005263671874,146.298095703125,97.43135263671874C146.298095703125,95.43135263671874,146.298095703125,93.43135263671874,146.298095703125,91.43135263671874C148.798095703125,89.74385263671874,148.798095703125,89.74385263671874,151.298095703125,88.43135263671874C149.978095703125,87.44135263671875,148.658095703125,86.45139263671875,147.298095703125,85.43139263671875C146.96809570312502,86.42139263671875,146.638095703125,87.41139263671874,146.298095703125,88.43135263671874C146.298095703125,87.77135263671875,146.298095703125,87.11139263671875,146.298095703125,86.43139263671875C145.308095703125,86.43139263671875,144.318095703125,86.43139263671875,143.298095703125,86.43139263671875C142.968095703125,88.08135263671875,142.638095703125,89.73135263671875,142.298095703125,91.43135263671874C139.610595703125,91.74385263671874,139.610595703125,91.74385263671874,136.298095703125,91.43135263671874C133.490685703125,89.18545263671875,131.686455703125,87.53675263671875,130.485595703125,84.11889263671875C130.423720703125,83.56201263671875,130.361845703125,83.00514263671874,130.298095703125,82.43139263671875C130.958095703125,82.43139263671875,131.618095703125,82.43139263671875,132.298095703125,82.43139263671875C132.298095703125,80.78139263671875,132.298095703125,79.13139263671874,132.298095703125,77.43139019671875Z" fill="#E24329" fill-opacity="1" style="mix-blend-mode:passthrough"/></g><g><path d="M34.298095703125,136.43139217871095C34.628095703125,136.76139217871093,34.958095703125,137.09139217871095,35.298095703125,137.43139317871095C35.208695703125,138.95658317871093,35.052695703124996,140.47821317871094,34.860595703125,141.99389317871095C34.758795703125,142.82018317871095,34.656895703125,143.64647317871095,34.551995703125,144.49779317871094C34.468195703125,145.13588317871094,34.384395703125,145.77397317871095,34.298095703125,146.43143317871093C35.618095703125,146.76143317871094,36.938095703125,147.09143317871093,38.298095703125,147.43143317871093C37.298095703125,150.43143317871093,37.298095703125,150.43143317871093,34.860595703125,151.68143317871093C32.298095703125,152.43143317871093,32.298095703125,152.43143317871093,30.298095703125,151.43143317871093C29.968095703125,150.44143317871095,29.638095703125,149.45143317871094,29.298095703125,148.43143317871093C28.638095703125,147.77143317871094,27.978095703125,147.11143317871094,27.298095703125,146.43143317871093C26.308095703124998,146.92643317871094,26.308095703124998,146.92643317871094,25.298095703125,147.43143317871093C25.298095703125,146.11139317871093,25.298095703125,144.79139317871093,25.298095703125,143.43139317871095C24.308095703124998,143.43139317871095,23.318095703125,143.43139317871095,22.298095703125,143.43139317871095C22.628095703125,142.77139317871092,22.958095703125,142.11139317871093,23.298095703125,141.43139317871095C23.442465703125,140.75076317871094,23.586845703125,140.07014317871094,23.735595703125,139.36889317871095C23.921225703125,138.72951317871093,24.106845703125,138.09014317871095,24.298095703125,137.43139317871095C27.551125703125,135.80487717871094,30.690355703125,136.31686047871094,34.298095703125,136.43139217871095Z" fill="#E24329" fill-opacity="1" style="mix-blend-mode:passthrough"/></g><g><path d="M226.298095703125,158.431396484375C229.928095703125,158.431396484375,233.558095703125,158.431396484375,237.298095703125,158.431396484375C237.745595703125,161.489316484375,237.758395703125,163.645096484375,236.173095703125,166.353276484375C233.567925703125,169.636896484375,232.043145703125,171.224396484375,227.923095703125,172.368896484375C227.056845703125,172.389496484375,226.190595703125,172.410196484375,225.298095703125,172.431396484375C225.813720703125,171.730096484375,226.329345703125,171.028896484375,226.860595703125,170.306396484375C228.625725703125,166.776146484375,228.277815703125,165.187006484375,227.298095703125,161.431396484375C226.968095703125,160.441396484375,226.638095703125,159.451396484375,226.298095703125,158.431396484375Z" fill="#FCA326" fill-opacity="1" style="mix-blend-mode:passthrough"/></g><g><path d="M130.298095703125,82.431396484375C138.348045703125,82.775411484375,138.348045703125,82.775411484375,141.923095703125,85.243896484375C143.298095703125,87.431396484375,143.298095703125,87.431396484375,143.048095703125,89.681396484375C142.800595703125,90.258896484375,142.553095703125,90.836396484375,142.298095703125,91.431396484375C139.610595703125,91.743896484375,139.610595703125,91.743896484375,136.298095703125,91.431396484375C132.854185703125,88.676266484375,131.150244703125,86.719626484375,130.298095703125,82.431396484375Z" fill="#F5F5F6" fill-opacity="1" style="mix-blend-mode:passthrough"/></g><g><path d="M262.298095703125,243.431396484375C264.735595703125,244.118896484375,264.735595703125,244.118896484375,267.298095703125,245.431396484375C268.298095703125,247.868896484375,268.298095703125,247.868896484375,268.298095703125,250.431396484375C267.173095703125,252.306396484375,267.173095703125,252.306396484375,265.298095703125,253.431396484375C262.735595703125,253.431396484375,262.735595703125,253.431396484375,260.298095703125,252.431396484375C258.985595703125,249.868896484375,258.985595703125,249.868896484375,258.298095703125,247.431396484375C259.618095703125,246.111396484375,260.938095703125,244.791396484375,262.298095703125,243.431396484375Z" fill="#F2F3F5" fill-opacity="1" style="mix-blend-mode:passthrough"/></g><g><path d="M272.798095703125,216.181396484375C275.298095703125,216.431396484375,275.298095703125,216.431396484375,277.298095703125,218.431396484375C277.548095703125,220.931396484375,277.548095703125,220.931396484375,277.298095703125,223.431396484375C275.298095703125,225.431396484375,275.298095703125,225.431396484375,272.798095703125,225.681396484375C270.298095703125,225.431396484375,270.298095703125,225.431396484375,268.298095703125,223.431396484375C268.048095703125,220.931396484375,268.048095703125,220.931396484375,268.298095703125,218.431396484375C270.298095703125,216.431396484375,270.298095703125,216.431396484375,272.798095703125,216.181396484375Z" fill="#F9FAFB" fill-opacity="1" style="mix-blend-mode:passthrough"/></g><g><path d="M120.798095703125,28.181396484375C123.298095703125,28.431396484375,123.298095703125,28.431396484375,125.298095703125,30.431396484375C125.548095703125,32.931396484375,125.548095703125,32.931396484375,125.298095703125,35.431396484375C123.298095703125,37.431396484375,123.298095703125,37.431396484375,120.798095703125,37.681396484375C118.298095703125,37.431396484375,118.298095703125,37.431396484375,116.298095703125,35.431396484375C116.048095703125,32.931396484375,116.048095703125,32.931396484375,116.298095703125,30.431396484375C118.298095703125,28.431396484375,118.298095703125,28.431396484375,120.798095703125,28.181396484375Z" fill="#F6F7F8" fill-opacity="1" style="mix-blend-mode:passthrough"/></g><g><path d="M59.798095703125,59.118896484375C61.035595703125,59.273583484375,61.035595703125,59.273583484375,62.298095703125,59.431396484375C64.298095703125,62.431396484375,64.298095703125,62.431396484375,63.985595703125,65.056396484375C63.298095703125,67.431396484375,63.298095703125,67.431396484375,62.298095703125,68.431396484375C59.860595703125,68.618896484375,59.860595703125,68.618896484375,57.298095703125,68.431396484375C55.298095703125,66.431396484375,55.298095703125,66.431396484375,55.048095703125,63.931396484375C55.397619703125,60.436156484375,56.322515703125,59.553343484375,59.798095703125,59.118896484375Z" fill="#F8F8F8" fill-opacity="1" style="mix-blend-mode:passthrough"/></g><g><path d="M31.298095703125,136.306396484375C34.298095703125,136.431396484375,34.298095703125,136.431396484375,35.298095703125,137.431396484375C35.485595703125,140.368896484375,35.485595703125,140.368896484375,35.298095703125,143.431396484375C34.638095703125,144.091396484375,33.978095703125,144.751396484375,33.298095703125,145.431396484375C30.000945703125,145.101686484375,28.675415703125,144.808716484375,26.298095703125,142.431396484375C27.023325703125,136.484511484375,27.023325703125,136.484511484375,31.298095703125,136.306396484375Z" fill="#F5F6F7" fill-opacity="1" style="mix-blend-mode:passthrough"/></g></g></svg>