<?xml version="1.0" encoding="utf-8" ?>
<svg xmlns="http://www.w3.org/2000/svg" xmlns:xlink="http://www.w3.org/1999/xlink" width="1024" height="1024">
	<path fill="#540A1A" d="M708.313 934.759C706.048 929.226 702.254 918.262 704.85 912.598C705.534 911.106 706.446 910.672 707.938 910.19C708.979 910.314 709.758 910.454 710.654 911.032C716.579 914.859 718.544 925.733 719.802 932.158C722.02 940.002 728.06 959.54 724.327 966.804C724.084 967.277 723.936 967.355 723.579 967.658C722.262 967.656 721.639 967.536 720.659 966.583C714.208 960.306 710.721 943.655 708.313 934.759Z"/>
	<path fill="#540A1A" d="M748.092 921.298C743.443 914.717 736.855 908.665 733.639 901.224C732.573 898.758 732.297 896.367 733.232 893.836C734.26 892.885 734.48 892.613 735.98 892.673C743.31 892.968 753.824 909.128 757.656 914.72C762.074 920.475 774.528 935.8 773.543 943.062C773.445 943.789 773.387 943.821 773.118 944.396C771.882 944.79 771.343 944.646 770.179 944.045C760.617 939.106 755.292 928.725 748.092 921.298Z"/>
	<path fill="#540A1A" d="M782.124 896.422C775.715 892.493 762.837 884.858 760.568 877.177C760.188 875.889 760.38 875.041 760.996 873.862C761.868 873.136 762.543 872.75 763.702 872.654C771.042 872.051 784.526 883.284 789.996 888.084C795.424 891.869 814.648 905.058 815.626 911.034C815.769 911.905 815.457 912.085 815.037 912.809C812.935 913.82 811.127 913.218 809.022 912.474C799.031 908.943 790.783 902.266 782.124 896.422Z"/>
	<path fill="#C9ACAA" d="M833.24 748.088C832.008 780.81 832.48 814.591 819.765 845.334C826.075 846.053 835.917 845.755 840.795 850.244C840.93 850.855 841.203 851.185 840.773 851.728C837.856 855.421 825.048 856.36 820.647 856.476Q817.438 856.543 814.228 856.494C807.554 867.512 798.772 878.656 789.996 888.084C784.526 883.284 771.042 872.051 763.702 872.654C762.543 872.75 761.868 873.136 760.996 873.862C760.38 875.041 760.188 875.889 760.568 877.177C762.837 884.858 775.715 892.493 782.124 896.422C774.808 902.974 766.712 910.728 757.656 914.72C753.824 909.128 743.31 892.968 735.98 892.673C734.48 892.613 734.26 892.885 733.232 893.836C732.297 896.367 732.573 898.758 733.639 901.224C736.855 908.665 743.443 914.717 748.092 921.298C738.73 925.045 729.078 928.236 719.802 932.158C718.544 925.733 716.579 914.859 710.654 911.032C709.758 910.454 708.979 910.314 707.938 910.19C706.446 910.672 705.534 911.106 704.85 912.598C702.254 918.262 706.048 929.226 708.313 934.759C693.093 938.113 677.33 938.695 661.795 938.883Q601.346 939.197 540.897 938.741L426.848 938.232L371.052 938.005C352.403 937.982 332.925 938.816 314.609 934.817C288.985 929.223 266.114 916.273 247.467 897.94C218.343 869.308 204.86 831.671 204.608 791.375C205.769 791.531 206.483 792.021 207.464 792.644C223.2 802.629 238.096 813.008 254.323 822.442C321.428 861.454 413.053 900.654 489.78 911.186Q505.854 913.295 522.058 913.812Q538.262 914.33 554.438 913.251C646.581 906.797 735.745 848.166 799.791 784.811C811.557 773.173 822.407 760.587 833.24 748.088Z"/>
	<path fill="#540A1A" d="M814.228 856.494C804.955 856.603 780.343 856.697 773.557 851.012C772.553 850.171 772.401 849.655 772.316 848.393C772.79 847.517 773.228 846.901 774.05 846.339C781.859 841.005 810.121 843.703 819.765 845.334C826.075 846.053 835.917 845.755 840.795 850.244C840.93 850.855 841.203 851.185 840.773 851.728C837.856 855.421 825.048 856.36 820.647 856.476Q817.438 856.543 814.228 856.494Z"/>
	<path fill="#540A1A" d="M498.324 267.917L470.917 264.136C448.212 260.951 428.567 256.324 413.19 238C399.8 222.045 395.442 201.999 397.409 181.597C398.693 168.272 401.507 155.001 403.218 141.699C407.509 108.339 407.578 76.5551 436.131 53.4266C454.583 38.4799 477.263 35.5501 500.194 37.8806C511.072 38.9861 521.879 40.9627 532.686 42.605C546.364 44.6838 560.086 46.5089 573.789 48.4169L723.558 69.0878Q749.183 72.8149 774.88 76.0017C788.127 77.5929 802.738 78.0895 815.501 82.0449Q816.849 82.4558 818.182 82.917Q819.514 83.3781 820.828 83.8888Q822.141 84.3996 823.435 84.9591Q824.729 85.5187 826.001 86.1264Q827.273 86.734 828.521 87.3889Q829.77 88.0438 830.992 88.7449Q832.215 89.4461 833.411 90.1926Q834.607 90.9391 835.774 91.7298Q836.941 92.5206 838.077 93.3545Q839.214 94.1884 840.318 95.0643Q841.423 95.9402 842.494 96.8569Q843.565 97.7736 844.6 98.7297Q845.636 99.6858 846.636 100.68Q847.635 101.674 848.596 102.705Q849.558 103.736 850.48 104.803Q851.402 105.869 852.283 106.969C867.265 125.491 870.352 147.137 867.891 170.277C866.367 184.6 864.166 198.924 862.356 213.221C857.931 248.183 856.041 272.005 826.68 295.791C827.166 298.204 827.58 300.468 827.611 302.944C819.814 304.459 813.086 308.81 805.838 311.88C798.734 314.89 791.012 317.09 783.528 318.956C752.9 326.595 721.324 329.196 690.656 336.531Q678.339 339.507 666.383 343.703Q654.426 347.899 642.951 353.273C632.658 358.095 622.589 363.437 613.36 370.106C566.381 351.084 531.254 346.03 480.9 346.042C479.079 341.684 478.224 338.628 479.212 333.925C478.697 333.397 478.211 332.877 477.825 332.242C476.555 330.151 476.942 328.478 477.622 326.249C479.787 319.149 484.053 312.648 487.072 305.872C492.49 293.715 495.62 280.896 498.324 267.917Z"/>
	<path fill="#FEFEFE" d="M555.679 276.776C574.633 278.588 593.534 282.084 612.395 284.739L719.858 299.784C741.252 302.835 773.646 309.446 794.197 307.769C806.461 306.768 816.372 302.181 826.68 295.791C827.166 298.204 827.58 300.468 827.611 302.944C819.814 304.459 813.086 308.81 805.838 311.88C798.734 314.89 791.012 317.09 783.528 318.956C752.9 326.595 721.324 329.196 690.656 336.531Q678.339 339.507 666.383 343.703Q654.426 347.899 642.951 353.273C632.658 358.095 622.589 363.437 613.36 370.106C566.381 351.084 531.254 346.03 480.9 346.042C479.079 341.684 478.224 338.628 479.212 333.925C480.617 334.028 482.093 334.006 483.49 333.831C500.096 331.751 527.492 309.91 538.601 298.253C544.931 291.611 550.238 284.14 555.679 276.776Z"/>
	<path fill="#FEFEFE" d="M482.973 48.2131C488.396 47.8778 494.073 48.4373 499.454 49.1152C519.284 51.6138 539.092 55.0065 558.888 57.8522L698.345 77.3913L769.345 86.6958C783.44 88.5071 798.948 89.2442 812.516 93.434C825.272 97.3728 835.992 105.059 844.125 115.623C849.525 122.635 853.796 131.052 855.523 139.779C858.954 157.127 855.334 175.62 853.203 192.954L848.697 229.116C845.717 251.317 840.309 270.079 821.717 284.133C801.064 299.745 778.623 296.83 754.68 293.107Q737.337 290.295 719.938 287.857C702.821 285.843 685.715 283.13 668.641 280.751L549.188 264.166C537.071 287.984 515.33 304.91 492.644 317.925C502.397 296.428 506.809 282.211 510.719 258.712C501.778 257.341 492.856 255.926 483.889 254.728C464.956 252.197 445.255 251.068 429.877 238.381Q428.745 237.447 427.66 236.457Q426.576 235.467 425.543 234.424Q424.51 233.381 423.53 232.288Q422.551 231.194 421.627 230.053Q420.704 228.912 419.838 227.726Q418.973 226.54 418.169 225.312Q417.364 224.084 416.622 222.817Q415.88 221.551 415.202 220.248Q414.525 218.946 413.913 217.611Q413.302 216.276 412.758 214.913Q412.214 213.549 411.74 212.16Q411.265 210.771 410.861 209.36Q410.456 207.948 410.123 206.519Q409.79 205.089 409.529 203.644Q409.268 202.199 409.079 200.743Q408.891 199.288 408.776 197.824C407.329 180.749 412.568 159.779 414.957 142.619C417.205 126.472 417.706 109.37 422.638 93.7548Q423.633 90.5348 424.952 87.4332Q426.27 84.3317 427.899 81.3812Q429.528 78.4306 431.45 75.662Q433.371 72.8934 435.566 70.3356C447.695 56.2357 464.774 49.6344 482.973 48.2131Z"/>
	<path fill="#DA6838" d="M745.657 231.544C749.429 231.36 752.9 231.367 756.523 232.656C761.364 234.379 765.581 237.911 767.675 242.658C769.443 246.666 769.578 251.419 767.931 255.489C765.772 260.824 761.426 263.63 756.343 265.722C752.793 266.157 749.423 266.029 746.002 264.89C741.016 263.23 736.708 259.639 734.491 254.836Q734.14 254.091 733.866 253.315Q733.591 252.539 733.396 251.739Q733.202 250.94 733.088 250.124Q732.975 249.309 732.945 248.486Q732.914 247.664 732.966 246.842Q733.019 246.021 733.154 245.208Q733.288 244.396 733.504 243.602Q733.72 242.808 734.015 242.039C736.177 236.555 740.55 233.843 745.657 231.544Z"/>
	<path fill="#E2DDDC" d="M469.526 105.597L469.737 105.573C473.518 105.116 477.284 105.426 481.064 105.781C492.745 106.877 504.475 109.182 516.091 110.899L583.075 120.534L651.025 129.8C664.146 131.53 677.508 132.664 690.505 135.164C694.167 135.868 699.465 136.509 701.853 139.66C702.852 140.977 703.178 142.605 702.943 144.225C702.443 147.681 700.73 149.505 698.036 151.519Q696.029 151.565 694.023 151.49C680.121 150.982 663.291 147.54 649.202 145.531Q606.336 139.596 563.535 133.201L503.889 124.484C494.989 123.225 485.523 122.709 476.773 120.789C472.865 119.932 468.51 118.254 465.827 115.161C464.835 114.019 464.264 112.749 464.484 111.202C464.883 108.392 467.335 106.939 469.526 105.597Z"/>
	<path fill="#E2DDDC" d="M463.308 176.045C473.012 176.034 482.626 178.266 492.194 179.673L539.553 186.499L634.093 200.246C650.528 202.555 667.098 204.326 683.486 206.902C685.718 207.252 687.939 207.762 689.973 208.776C692.674 210.121 695.09 212.306 695.99 215.272Q696.062 215.508 696.109 215.751Q696.157 215.993 696.18 216.239Q696.203 216.486 696.201 216.733Q696.199 216.98 696.172 217.225Q696.146 217.471 696.094 217.713Q696.043 217.954 695.968 218.19Q695.893 218.425 695.794 218.652Q695.696 218.878 695.575 219.094C694.387 221.18 692.07 222.62 689.857 223.348C677.126 222.679 664.449 220.693 651.843 218.87L591.539 209.811L511.686 198.261C497.187 196.155 482.521 194.618 468.164 191.679C463.767 190.778 460.823 190.164 458.318 186.111C457.473 184.744 457.328 183.48 457.786 181.945C458.629 179.12 460.887 177.445 463.308 176.045Z"/>
	<path fill="#DA6838" d="M762.253 107.524C763.573 107.493 764.933 107.435 766.25 107.544C772.059 108.025 777.659 111.071 781.449 115.451C790.661 126.094 790.55 142.244 789.3 155.42C787.283 176.684 780.023 200.689 762.991 214.778C761.357 215.72 759.478 216.253 757.702 216.871Q756.482 216.482 755.284 216.029C750.299 214.106 747.099 209.202 745.018 204.495C735.615 183.227 733.871 149.919 742.479 128.145C746.451 118.1 752.334 111.857 762.253 107.524Z"/>
	<path fill="#540A1A" d="M203.724 488.896Q202.732 478.936 202.174 468.942Q201.616 458.948 201.493 448.939Q201.37 438.931 201.682 428.926Q201.995 418.922 202.742 408.94Q203.489 398.959 204.67 389.019Q205.851 379.08 207.463 369.201Q209.075 359.322 211.115 349.523Q213.155 339.723 215.619 330.022Q221.129 307.952 228.502 286.433C234.977 267.2 242.718 248.421 250.606 229.734C254.358 220.845 257.797 211.286 262.614 202.938C263.984 200.562 265.789 197.633 268.267 196.31C270.185 195.285 272.543 195.674 274.528 196.273C282.906 198.801 293.469 206.395 301.375 210.811C349.93 237.929 394.114 270.707 430.906 312.64C440.339 323.392 450.23 335.297 457.128 347.871Q468.997 346.733 480.9 346.042C531.254 346.03 566.381 351.084 613.36 370.106C622.589 363.437 632.658 358.095 642.951 353.273Q654.426 347.899 666.383 343.703Q678.339 339.507 690.656 336.531C721.324 329.196 752.9 326.595 783.528 318.956C791.012 317.09 798.734 314.89 805.838 311.88C813.086 308.81 819.814 304.459 827.611 302.944C830.642 303.605 832.223 304.167 833.993 306.794C837.381 311.82 838.695 319.58 840.252 325.378C850.944 365.194 849.226 406.234 840.385 446.261C837.438 459.606 833.439 472.533 829.023 485.454C831.499 490.905 831.933 497.495 832.313 503.414C832.872 512.141 832.581 521.041 832.645 529.79L832.914 578.731L832.652 623.085C832.623 629.107 833.21 635.265 832.749 641.254C832.899 641.285 833.048 641.317 833.198 641.346C839.555 642.579 851.062 641.519 855.292 647.135C857.024 649.434 856.811 652.233 856.32 654.909C855.576 658.969 854.068 663.167 852.249 666.867C856.301 667.465 859.29 667.859 861.811 671.487C865.417 676.678 863.672 685.551 862.459 691.325C857.736 713.808 845.762 729.715 833.24 748.088C822.407 760.587 811.557 773.173 799.791 784.811C735.745 848.166 646.581 906.797 554.438 913.251Q538.262 914.33 522.058 913.812Q505.854 913.295 489.78 911.186C413.053 900.654 321.428 861.454 254.323 822.442C238.096 813.008 223.2 802.629 207.464 792.644C206.483 792.021 205.769 791.531 204.608 791.375C203.191 788.674 194.719 782.993 191.957 780.694C173.207 765.093 150.646 743.773 142.409 720.454C141.155 716.904 140.535 712.873 142.321 709.39C145.15 703.873 153.012 702.434 158.468 700.727C154.376 697.072 150.7 693.269 148.426 688.19C147.001 685.007 146.145 681.287 147.574 677.95C150.408 671.331 159.638 670.875 165.474 668.542C177.941 663.558 196.957 647.909 202.349 635.419C201.663 629.069 202.179 622.292 202.226 615.9L202.35 581.91L202.073 525.141C202.053 515.591 201.747 505.893 202.242 496.357C202.377 493.752 202.987 491.381 203.724 488.896Z"/>
	<path fill="#C9ACAA" d="M203.724 488.896C205.208 495.138 206.175 501.508 207.478 507.791C210.897 524.272 216.143 539.223 224.383 553.964C218.695 580.934 218.503 612.015 202.349 635.419C201.663 629.069 202.179 622.292 202.226 615.9L202.35 581.91L202.073 525.141C202.053 515.591 201.747 505.893 202.242 496.357C202.377 493.752 202.987 491.381 203.724 488.896Z"/>
	<path fill="#C9ACAA" d="M829.023 485.454C831.499 490.905 831.933 497.495 832.313 503.414C832.872 512.141 832.581 521.041 832.645 529.79L832.914 578.731L832.652 623.085C832.623 629.107 833.21 635.265 832.749 641.254C825.484 637.922 818.032 636.815 811.016 632.427C789.198 618.782 781.557 591.853 776.09 568.245C801.518 547.389 816.613 515.112 829.023 485.454Z"/>
	<path fill="#FEFEFE" d="M804.861 366.88C805.699 367.727 805.702 369.446 805.801 370.614C806.545 379.403 805.039 389.09 804.281 397.892C800.306 444.071 787.146 484.903 757.261 520.832C751.509 509.327 746.309 497.656 739.941 486.453C730.112 469.23 717.97 453.983 704.97 439.073C721.816 419.858 746.356 410.026 767.72 396.939C781.642 388.411 793.6 378.741 804.861 366.88Z"/>
	<path fill="#DA6838" d="M824.786 316.006C827.108 318.517 828.062 323.685 828.894 326.944Q830.578 333.414 831.853 339.977Q833.128 346.54 833.988 353.17Q834.848 359.8 835.289 366.471Q835.731 373.141 835.753 379.827C836.503 444.013 815.276 511.766 769.888 558.299C766.972 548.11 763.964 538.058 760.225 528.137C765.794 521.742 771.085 515.259 775.902 508.273C796.804 477.955 807.563 441.663 810.91 405.224C811.89 394.545 811.941 383.858 812.32 373.152C812.44 369.779 812.493 366.359 812.86 363.002C813.314 358.848 815.055 354.253 814.3 350.147C813.266 349.668 812.135 349.143 810.964 349.183C807.646 349.294 803.548 357.003 801.512 359.606C781.879 384.722 752.138 396.018 726.223 412.869C716.859 418.959 708.415 425.783 700.608 433.781C679.823 409.659 652.803 390.613 624.528 376.376C654.799 355.931 691.876 346.481 727.515 340.745C760.57 335.425 794.732 331.913 824.786 316.006Z"/>
	<path fill="#DA6838" d="M272.612 206.547C284.976 212.592 297.01 220.194 308.736 227.408C351.16 253.51 391.058 282.82 423.693 320.783C428.685 326.591 433.522 332.66 437.884 338.958C442.652 345.842 446.986 353.016 452.179 359.597C440.473 361.895 420.454 364.116 410.199 369.183C410.978 371.02 411.659 372.485 411.646 374.504L411.345 375.143C410.971 375.937 410.853 375.956 410.143 376.45C403.151 381.323 393.243 383.191 385.41 386.73C370.797 393.331 356.701 402.129 343.666 411.431C328.799 422.039 314.534 434.115 301.993 447.41Q297.246 452.41 292.901 457.763C289.622 461.856 284.031 471.215 280.172 473.74C278.988 473.994 278.437 473.917 277.293 473.532C273.338 476.908 270.565 482.338 267.878 486.733C262.12 496.152 256.371 505.623 251.458 515.518C248.244 521.992 245.704 528.861 242.227 535.183C241.504 534.249 240.576 532.899 239.453 532.438C238.677 532.119 237.795 532.052 237.013 532.34C233.407 533.671 231.615 539.579 230.24 542.827C196.87 456.786 213.844 359.45 244.353 275.105C252.797 251.76 263.33 229.521 272.612 206.547Z"/>
	<path fill="#540A1A" d="M297.631 264.715Q296.033 263.825 294.452 262.904C291.639 261.26 284.902 257.482 284.309 254.126C284.168 253.328 284.596 253.155 285.063 252.585C286.763 251.923 288.023 251.654 289.831 252.103C296.057 253.648 306.569 262.406 312.075 266.42C343.753 289.519 374.249 316.508 397.177 348.545C401.919 355.171 405.847 362.304 410.199 369.183C410.978 371.02 411.659 372.485 411.646 374.504L411.345 375.143C410.971 375.937 410.853 375.956 410.143 376.45C403.151 381.323 393.243 383.191 385.41 386.73C370.797 393.331 356.701 402.129 343.666 411.431C328.799 422.039 314.534 434.115 301.993 447.41Q297.246 452.41 292.901 457.763C289.622 461.856 284.031 471.215 280.172 473.74C278.988 473.994 278.437 473.917 277.293 473.532C272.187 464.507 270.422 454.422 269.382 444.217C265.37 404.833 277.442 369.23 286.5 331.497C291.702 309.825 296.831 287.072 297.631 264.715Z"/>
	<path fill="#FEFEFE" d="M304.512 269.719C312.171 274.748 319.36 280.767 326.518 286.496C357.147 311.01 383.461 338.313 403.905 371.898C376.236 382.211 351.222 396.668 328.02 414.873C309.871 429.494 294.011 444.512 279.888 463.11C268.171 414.435 282.782 377.011 293.712 330.218C298.388 310.202 301.35 290.002 304.512 269.719Z"/>
	<path fill="#FEFEFE" d="M731.274 654.21C748 651.992 764.999 649.624 781.915 650.491C804.984 651.672 821.285 664.575 844.946 655.086C842.644 661.485 838.34 667.466 832.117 670.53C826.08 673.503 818.662 673.206 812.083 673.379C825.046 678.689 839.216 676.87 852.793 678.622C850.503 690.619 847.949 702.264 842.483 713.302C821.02 756.645 757.985 810.529 718.375 837.472C664.472 874.138 602.718 902.286 536.516 902.856C513.94 903.05 491.633 900.159 469.499 895.934C384.528 879.714 210.929 805.672 162.276 733.483C158.356 727.666 154.781 721.394 152.164 714.874C167.288 710.247 186.367 706.385 199.081 696.665C189.549 696.951 180.605 700.462 171.482 696.188C179.494 690.952 189.614 686.979 198.607 683.678C240.296 668.374 283.375 666.039 327.308 669.612C332.705 689.172 345.378 706.544 363.055 716.657Q364.484 717.491 365.953 718.253Q367.421 719.015 368.926 719.703Q370.431 720.391 371.968 721.003Q373.505 721.616 375.07 722.151Q376.636 722.686 378.226 723.142Q379.817 723.599 381.428 723.975Q383.039 724.352 384.667 724.648Q386.294 724.944 387.935 725.159Q389.576 725.374 391.225 725.507Q392.874 725.64 394.528 725.69Q396.181 725.741 397.836 725.709Q399.49 725.678 401.14 725.564Q402.791 725.45 404.434 725.254Q406.077 725.058 407.708 724.78Q409.339 724.503 410.954 724.145Q412.57 723.786 414.165 723.348C433.063 718.149 448.354 705.147 458.141 688.387C484.249 699.965 504.273 711.27 527.097 728.474C531.588 731.858 537.752 735.632 540.531 740.606C543.212 736.724 546.198 734.313 550.434 732.25C571 722.235 596.035 722.296 617.265 729.791C624.485 719.652 633.126 709.745 643.085 702.233C647.877 704.827 652.751 707.017 658.052 708.359Q659.369 708.702 660.702 708.977Q662.034 709.253 663.379 709.461Q664.724 709.668 666.077 709.808Q667.431 709.948 668.79 710.019Q670.149 710.09 671.51 710.092Q672.87 710.095 674.23 710.029Q675.589 709.962 676.943 709.827Q678.297 709.693 679.642 709.489Q680.988 709.286 682.322 709.016Q683.655 708.745 684.973 708.407Q686.291 708.069 687.591 707.665Q688.89 707.261 690.168 706.792Q691.445 706.323 692.697 705.79Q693.949 705.257 695.173 704.661Q696.396 704.065 697.588 703.409Q698.78 702.752 699.937 702.036C717.484 691.293 726.615 673.68 731.274 654.21Z"/>
	<path fill="#540A1A" d="M540.531 740.606C543.212 736.724 546.198 734.313 550.434 732.25C571 722.235 596.035 722.296 617.265 729.791C619.103 731.916 620.182 733.523 619.917 736.434C619.191 744.403 610.225 752.147 604.322 756.749C597.53 762.043 590.444 766.125 581.518 764.929C569.691 763.344 549.666 753.801 542.407 743.929C541.633 742.876 541.075 741.788 540.531 740.606Z"/>
	<path fill="#312E31" d="M581.864 730.2C584.219 729.832 586.952 729.916 589.338 729.954C594.32 730.035 606.521 730.432 609.856 734.602C610.803 735.787 611.078 736.779 610.966 738.285C610.633 742.765 604.098 748.158 600.725 750.713C594.015 755.796 587.533 757.711 579.111 756.573C567.371 753.449 557.694 748.282 547.772 741.401C558.547 734.63 569.3 731.767 581.864 730.2Z"/>
	<path fill="#FEFEFE" d="M585.845 734.701C592.343 733.885 600.653 734.388 606.709 737.041Q594.871 737.139 583.053 737.825C575.83 738.332 568.614 739.257 561.423 740.085C569.282 737.021 577.508 735.681 585.845 734.701Z"/>
	<path fill="#540A1A" d="M637.269 746.26C639.312 746.417 640.874 746.642 642.619 747.776C649.486 752.238 653.198 760.817 654.679 768.616Q654.855 769.518 654.986 770.428Q655.116 771.338 655.202 772.254Q655.287 773.169 655.327 774.088Q655.367 775.006 655.361 775.925Q655.355 776.845 655.304 777.763Q655.252 778.68 655.155 779.595Q655.058 780.509 654.916 781.417Q654.774 782.325 654.586 783.225Q654.399 784.125 654.167 785.015Q653.935 785.905 653.66 786.782Q653.384 787.659 653.065 788.521Q652.746 789.383 652.385 790.229Q652.023 791.074 651.62 791.9Q651.217 792.727 650.774 793.532Q650.33 794.337 649.847 795.119Q649.364 795.902 648.843 796.659C642.159 806.198 632.677 809.792 621.605 811.715C619.586 828.606 614.804 845.06 601.219 856.36C590.521 865.258 575.408 869.646 561.596 868.298C551.955 867.356 542.59 863.481 536.39 855.827C526.622 843.769 527.051 828.632 528.683 814.077C521.607 810.05 516.386 805.933 511.732 799.203C510.234 796.524 508.969 793.752 508.27 790.755C505.939 780.766 508.267 768.719 513.854 760.137C515.112 758.204 516.687 756.467 519.086 756.143C520.589 755.939 521.361 756.566 522.49 757.415C523.178 760.551 517.613 767.489 516.203 770.56C515.14 772.873 514.481 775.308 514.14 777.827C513.143 785.189 514.972 793.324 519.672 799.125C532.892 815.44 556.748 813.323 573.785 805.399C578.676 803.124 583.992 798.211 589.329 797.609C594.848 796.987 599.86 800.866 604.8 802.75C607.619 803.825 610.721 804.298 613.713 804.576C622.785 805.419 632.503 803.727 639.569 797.6C648.797 789.597 651.413 774.948 646.569 763.945C644.221 758.609 636.772 752.476 637.224 746.727C637.236 746.571 637.254 746.416 637.269 746.26Z"/>
	<path fill="#E493BF" d="M534.564 823.721C553.4 827.093 566.891 837.354 578.653 851.952C580.152 853.813 582.152 856.186 581.875 858.659L580.877 859.198C575.637 860.557 570.122 861.373 564.701 861.224C556.499 860.998 548.434 858.563 542.761 852.305C535.623 844.431 534.152 833.913 534.564 823.721Z"/>
	<path fill="#9A232C" d="M591.057 804.134C598.718 808.357 606.579 810.651 615.235 811.688C614.442 815.035 613.711 818.403 612.833 821.729C608.886 836.691 603.077 847.583 589.5 855.549L583.351 846.754C574.284 834.34 562.242 826.546 548.79 819.684C566.823 817.393 575.558 813.395 591.057 804.134Z"/>
	<path fill="#FA894C" d="M452.179 359.597C466.524 359.138 480.692 356.855 495.089 357.089C560.613 358.157 631.676 378.05 680.357 423.669C709.479 450.958 733.029 483.173 748.432 520.091C755.481 536.984 760.777 554.637 765.618 572.269C779.083 621.316 790.146 646.714 844.946 655.086C821.285 664.575 804.984 651.672 781.915 650.491C764.999 649.624 748 651.992 731.274 654.21C726.615 673.68 717.484 691.293 699.937 702.036Q698.78 702.752 697.588 703.409Q696.396 704.065 695.173 704.661Q693.949 705.257 692.697 705.79Q691.445 706.323 690.168 706.792Q688.89 707.261 687.591 707.665Q686.291 708.069 684.973 708.407Q683.655 708.745 682.321 709.015Q680.988 709.286 679.642 709.489Q678.297 709.693 676.943 709.827Q675.589 709.962 674.229 710.029Q672.87 710.095 671.51 710.092Q670.149 710.09 668.79 710.019Q667.431 709.948 666.077 709.808Q664.724 709.668 663.379 709.461Q662.034 709.253 660.702 708.977Q659.369 708.702 658.052 708.359C652.751 707.017 647.877 704.827 643.085 702.233C633.126 709.745 624.485 719.652 617.265 729.791C596.035 722.296 571 722.235 550.434 732.25C546.198 734.313 543.212 736.724 540.531 740.606C537.752 735.632 531.588 731.858 527.097 728.474C504.273 711.27 484.249 699.965 458.141 688.387C448.354 705.147 433.063 718.149 414.165 723.348Q412.57 723.786 410.954 724.145Q409.339 724.503 407.708 724.78Q406.077 725.058 404.434 725.254Q402.791 725.45 401.14 725.564Q399.49 725.678 397.836 725.709Q396.181 725.741 394.528 725.69Q392.874 725.64 391.225 725.507Q389.575 725.374 387.935 725.159Q386.294 724.944 384.667 724.648Q383.039 724.352 381.428 723.975Q379.817 723.599 378.226 723.142Q376.636 722.686 375.07 722.151Q373.505 721.616 371.968 721.003Q370.431 720.391 368.926 719.703Q367.421 719.015 365.953 718.253Q364.484 717.491 363.055 716.657C345.378 706.544 332.705 689.172 327.308 669.612C283.375 666.039 240.296 668.374 198.607 683.678C189.614 686.979 179.494 690.952 171.482 696.188C166.233 693.73 162.15 687.841 158.605 683.411C162.825 681.931 167.086 680.488 171.158 678.633Q173.631 677.477 176.033 676.18Q178.435 674.882 180.758 673.447Q183.08 672.012 185.315 670.444Q187.55 668.876 189.69 667.181Q191.83 665.486 193.868 663.669Q195.906 661.853 197.835 659.92Q199.764 657.988 201.577 655.947Q203.39 653.906 205.081 651.763C218.002 635.305 225.566 614.894 229.194 594.412C230.965 584.414 232.03 574.301 233.992 564.332C235.925 554.51 238.768 544.574 242.227 535.183C245.704 528.861 248.244 521.992 251.458 515.518C256.371 505.623 262.12 496.152 267.878 486.733C270.565 482.338 273.338 476.908 277.293 473.532C278.437 473.917 278.988 473.994 280.172 473.74C284.031 471.215 289.622 461.856 292.901 457.763Q297.246 452.41 301.993 447.41C314.534 434.115 328.799 422.039 343.666 411.431C356.701 402.129 370.797 393.331 385.41 386.73C393.243 383.191 403.151 381.323 410.143 376.45C410.853 375.956 410.971 375.937 411.345 375.143L411.646 374.504C411.659 372.485 410.978 371.02 410.199 369.183C420.454 364.116 440.473 361.895 452.179 359.597Z"/>
	<path fill="#FEFEFE" d="M634.291 483.572C634.651 483.55 635.01 483.525 635.371 483.514C652.31 483.015 666.562 491.889 678.6 503.062C685.425 509.397 706.967 532.284 706.1 541.522C705.968 542.921 705.72 543.095 704.708 543.912C702.136 544.301 699.853 543.129 697.577 542.068C690.34 537.053 682.42 532.536 674.129 529.54C664.658 526.117 654.828 523.815 645.561 519.8C637.718 516.402 628.247 510.695 625.187 502.237C623.756 498.284 623.821 493.491 625.703 489.685C627.488 486.073 630.738 484.834 634.291 483.572Z"/>
	<path fill="#FEFEFE" d="M408.148 485.165C410.885 484.896 413.622 484.815 416.311 485.499C420.063 486.454 423.476 488.723 425.443 492.105C427.279 495.263 427.671 499.015 426.72 502.524C421.26 522.672 366.24 537.407 348.73 547.419C344.638 550.168 341.032 553.469 337.411 556.792Q338.943 551.722 340.89 546.797Q342.837 541.872 345.185 537.124Q347.533 532.377 350.266 527.84Q352.999 523.304 356.098 519.009C368.489 501.948 387.036 488.474 408.148 485.165Z"/>
	<path fill="#540A1A" d="M643.085 702.233C637.014 697.183 631.026 692.49 626.031 686.289C612.737 669.784 608.212 647.171 610.607 626.457C612.771 607.747 621.602 589.375 636.553 577.583Q637.596 576.754 638.678 575.977Q639.761 575.201 640.881 574.479Q642.001 573.757 643.155 573.092Q644.31 572.426 645.496 571.819Q646.682 571.212 647.896 570.665Q649.111 570.117 650.352 569.631Q651.592 569.145 652.855 568.721Q654.118 568.296 655.401 567.935Q656.683 567.575 657.982 567.278Q659.281 566.981 660.593 566.749Q661.905 566.517 663.227 566.351Q664.549 566.185 665.878 566.084Q667.206 565.984 668.538 565.95Q669.87 565.915 671.202 565.947Q672.534 565.979 673.863 566.077Q675.192 566.175 676.514 566.339C692.632 568.259 706.584 577.117 716.508 589.758C731.427 608.761 734.062 630.923 731.274 654.21C726.615 673.68 717.484 691.293 699.937 702.036Q698.78 702.752 697.588 703.409Q696.396 704.065 695.173 704.661Q693.949 705.257 692.697 705.79Q691.445 706.323 690.168 706.792Q688.89 707.261 687.591 707.665Q686.291 708.069 684.973 708.407Q683.655 708.745 682.321 709.015Q680.988 709.286 679.642 709.489Q678.297 709.693 676.943 709.827Q675.589 709.962 674.229 710.029Q672.87 710.095 671.51 710.092Q670.149 710.09 668.79 710.019Q667.431 709.948 666.077 709.808Q664.724 709.668 663.379 709.461Q662.034 709.253 660.702 708.977Q659.369 708.702 658.052 708.359C652.751 707.017 647.877 704.827 643.085 702.233Z"/>
	<path fill="#312E31" d="M643.549 584.316C647.865 578.68 656.768 576.183 663.601 575.278C676.39 573.584 689.904 577.728 699.987 585.657C713.843 596.555 721.597 614.038 723.507 631.276C725.456 648.869 720.931 667.522 709.723 681.403C701.327 691.801 689.41 699.593 675.922 700.968C663.511 702.233 651.18 698.057 641.674 690.095C627.472 678.2 620.503 659.572 619.018 641.49C618.411 634.105 619.053 627.527 622.696 620.937C622.832 616.504 624.121 611.592 625.528 607.408C628.85 597.535 633.98 589.048 643.549 584.316Z"/>
	<path fill="#FEFEFE" d="M660.668 654.987C661.856 654.996 663.083 655.001 664.261 655.161C666.484 655.464 668.669 656.966 669.87 658.838C671.128 660.799 671.358 663.222 670.778 665.45C669.835 669.072 667.499 670.956 664.411 672.788C663.065 672.941 661.562 672.86 660.234 672.59C658.082 672.152 656.068 670.601 654.968 668.722C653.622 666.425 653.52 663.7 654.344 661.209C655.447 657.876 657.648 656.453 660.668 654.987Z"/>
	<path fill="#FEFEFE" d="M643.549 584.316C650.008 585.072 655.209 587.701 659.31 592.835C666.161 601.412 668.573 614.194 667.176 624.908C666.092 633.218 662.343 642.594 655.559 647.857C652.408 650.301 648.521 651.622 644.524 651.039C638.06 650.097 632.994 645.488 629.381 640.312C623.652 632.106 625.154 629.166 622.696 620.937C622.832 616.504 624.121 611.592 625.528 607.408C628.85 597.535 633.98 589.048 643.549 584.316Z"/>
	<path fill="#540A1A" d="M327.308 669.612C321.881 646.446 324.116 623.341 336.851 602.84Q337.78 601.35 338.782 599.908Q339.783 598.466 340.854 597.075Q341.926 595.684 343.064 594.347Q344.202 593.01 345.405 591.731Q346.608 590.452 347.872 589.233Q349.136 588.015 350.459 586.86Q351.782 585.706 353.159 584.617Q354.537 583.529 355.967 582.51Q357.397 581.491 358.875 580.544Q360.353 579.596 361.876 578.722Q363.399 577.849 364.964 577.051Q366.528 576.254 368.129 575.534Q369.731 574.814 371.366 574.174Q373.001 573.534 374.665 572.976Q376.33 572.417 378.02 571.941Q379.71 571.464 381.421 571.072Q382.966 570.711 384.528 570.428Q386.089 570.145 387.662 569.939Q389.236 569.734 390.818 569.608Q392.399 569.481 393.986 569.434Q395.572 569.386 397.158 569.418Q398.745 569.449 400.328 569.56Q401.91 569.671 403.486 569.86Q405.061 570.049 406.625 570.317Q408.19 570.585 409.738 570.93Q411.287 571.275 412.817 571.697Q414.346 572.119 415.853 572.617Q417.36 573.114 418.84 573.687Q420.32 574.259 421.77 574.904Q423.219 575.549 424.635 576.266Q426.051 576.982 427.429 577.769Q428.808 578.555 430.145 579.409Q431.013 579.967 431.866 580.546Q432.72 581.124 433.559 581.724Q434.399 582.324 435.223 582.944Q436.047 583.564 436.856 584.204Q437.665 584.844 438.457 585.504Q439.25 586.164 440.027 586.843Q440.803 587.522 441.562 588.22Q442.322 588.918 443.064 589.635Q443.806 590.351 444.53 591.085Q445.255 591.82 445.961 592.572Q446.667 593.324 447.354 594.093Q448.041 594.862 448.709 595.648Q449.378 596.434 450.026 597.236Q450.675 598.038 451.304 598.855Q451.933 599.673 452.541 600.506Q453.15 601.339 453.737 602.186Q454.325 603.034 454.892 603.895Q455.459 604.757 456.005 605.633Q456.55 606.508 457.074 607.396Q457.598 608.285 458.1 609.186Q458.602 610.087 459.081 611Q459.561 611.914 460.018 612.838Q460.475 613.763 460.909 614.699Q461.343 615.634 461.754 616.58Q462.165 617.526 462.553 618.482Q462.941 619.438 463.305 620.403Q463.669 621.368 464.009 622.342Q464.349 623.316 464.666 624.297Q464.982 625.279 465.274 626.268Q465.566 627.258 465.834 628.254Q466.101 629.25 466.344 630.253Q466.588 631.255 466.806 632.263C471.039 651.948 467.338 670.728 458.141 688.387C448.354 705.147 433.063 718.149 414.165 723.348Q412.57 723.786 410.954 724.145Q409.339 724.503 407.708 724.78Q406.077 725.058 404.434 725.254Q402.791 725.45 401.14 725.564Q399.49 725.678 397.836 725.709Q396.181 725.741 394.528 725.69Q392.874 725.64 391.225 725.507Q389.575 725.374 387.935 725.159Q386.294 724.944 384.667 724.648Q383.039 724.352 381.428 723.975Q379.817 723.599 378.226 723.142Q376.636 722.686 375.07 722.151Q373.505 721.616 371.968 721.003Q370.431 720.391 368.926 719.703Q367.421 719.015 365.953 718.253Q364.484 717.491 363.055 716.657C345.378 706.544 332.705 689.172 327.308 669.612Z"/>
	<path fill="#312E31" d="M360.863 592.095C360.962 591.945 361.059 591.794 361.159 591.645C366.192 584.197 376.598 580.832 385.044 579.274Q386.44 579.019 387.848 578.832Q389.255 578.646 390.669 578.529Q392.084 578.412 393.503 578.365Q394.922 578.317 396.341 578.34Q397.76 578.362 399.177 578.454Q400.593 578.546 402.003 578.708Q403.414 578.869 404.814 579.1Q406.215 579.331 407.603 579.63Q408.99 579.929 410.361 580.296Q411.733 580.663 413.084 581.097Q414.436 581.531 415.764 582.031Q417.093 582.531 418.395 583.096Q419.698 583.66 420.971 584.288Q422.244 584.916 423.485 585.606Q424.725 586.295 425.931 587.045Q427.136 587.795 428.303 588.603Q429.794 589.65 431.231 590.769Q432.669 591.888 434.05 593.076Q435.431 594.264 436.752 595.519Q438.073 596.773 439.331 598.091Q440.589 599.409 441.781 600.787Q442.973 602.165 444.095 603.599Q445.218 605.034 446.269 606.522Q447.32 608.01 448.297 609.548Q449.274 611.086 450.174 612.67Q451.074 614.254 451.896 615.88Q452.717 617.506 453.458 619.17Q454.198 620.835 454.856 622.534Q455.514 624.232 456.088 625.961Q456.662 627.69 457.151 629.446Q457.639 631.201 458.041 632.978Q458.443 634.755 458.757 636.549Q459.068 638.259 459.293 639.983Q459.518 641.706 459.656 643.439Q459.795 645.171 459.847 646.908Q459.899 648.646 459.864 650.384Q459.829 652.121 459.708 653.855Q459.586 655.589 459.379 657.315Q459.171 659.04 458.877 660.753Q458.583 662.467 458.204 664.163Q457.826 665.859 457.362 667.534Q456.899 669.21 456.353 670.86Q455.807 672.51 455.179 674.131Q454.552 675.751 453.844 677.339Q453.136 678.926 452.35 680.476Q451.564 682.027 450.701 683.536Q449.838 685.044 448.902 686.508Q447.965 687.973 446.956 689.388C437.076 703.211 422.499 712.875 405.66 715.66Q404.233 715.898 402.796 716.064Q401.359 716.23 399.916 716.324Q398.473 716.418 397.026 716.44Q395.58 716.462 394.134 716.412Q392.689 716.361 391.248 716.239Q389.806 716.116 388.373 715.921Q386.94 715.727 385.518 715.461Q384.096 715.195 382.689 714.858Q381.283 714.522 379.894 714.115Q378.506 713.709 377.14 713.233Q375.774 712.758 374.433 712.215Q373.093 711.672 371.781 711.062Q370.469 710.453 369.189 709.779Q367.91 709.105 366.665 708.367Q365.421 707.63 364.215 706.831Q363.009 706.033 361.844 705.175C346.875 694.256 337.43 677.998 334.617 659.76C332.206 644.135 333.634 622.313 343.64 609.27C344.878 607.657 346.012 606.369 347.843 605.452C351.431 600.015 355.614 595.922 360.863 592.095Z"/>
	<path fill="#FEFEFE" d="M383.244 666.051C384.698 665.999 386.289 665.879 387.729 666.107C390.416 666.534 393.094 668.274 394.554 670.564C396.032 672.884 396.372 675.731 395.643 678.367C394.593 682.16 392.13 684.064 388.87 685.968C387.68 686.019 386.469 686.073 385.286 685.901C382.366 685.479 379.54 683.92 377.873 681.446C376.375 679.223 375.95 676.526 376.578 673.931C377.522 670.03 380.011 668.095 383.244 666.051Z"/>
	<path fill="#FEFEFE" d="M360.863 592.095C366.446 590.602 371.361 590.302 376.568 593.399C383.046 597.252 386.962 604.896 388.643 612.032C391.727 625.12 389.251 641.877 382.019 653.279C379.301 657.563 375.42 661.505 370.286 662.571C365.976 663.465 361.743 662.088 358.175 659.664C350.165 654.222 345.865 643.883 344.262 634.653C342.465 624.295 344.521 615.267 347.843 605.452C351.431 600.015 355.614 595.922 360.863 592.095Z"/>
</svg>
